<?xml version="1.0" encoding="UTF-8"?>
<svg xmlns="http://www.w3.org/2000/svg" xmlns:xlink="http://www.w3.org/1999/xlink" width="24px" height="24px" viewBox="0 0 24 24" version="1.1">
<g id="surface1">
<path style=" stroke:none;fill-rule:nonzero;fill:rgb(0%,0%,0%);fill-opacity:1;" d="M 18.527344 12.84375 C 15.507812 12.84375 13.050781 15.296875 13.050781 18.316406 C 13.050781 21.332031 15.507812 23.789062 18.527344 23.789062 C 21.542969 23.789062 24 21.332031 24 18.316406 C 24 15.296875 21.542969 12.84375 18.527344 12.84375 Z M 18.527344 22.949219 C 15.972656 22.949219 13.894531 20.871094 13.894531 18.316406 C 13.894531 15.761719 15.972656 13.683594 18.527344 13.683594 C 21.078125 13.683594 23.15625 15.761719 23.15625 18.316406 C 23.15625 20.871094 21.078125 22.949219 18.527344 22.949219 Z M 18.527344 22.949219 "/>
<path style=" stroke:none;fill-rule:nonzero;fill:rgb(0%,0%,0%);fill-opacity:1;" d="M 21.050781 17.894531 L 18.949219 17.894531 L 18.949219 15.789062 C 18.949219 15.554688 18.757812 15.367188 18.527344 15.367188 C 18.292969 15.367188 18.105469 15.554688 18.105469 15.789062 L 18.105469 17.894531 L 16 17.894531 C 15.769531 17.894531 15.578125 18.082031 15.578125 18.316406 C 15.578125 18.546875 15.769531 18.738281 16 18.738281 L 18.105469 18.738281 L 18.105469 20.84375 C 18.105469 21.074219 18.292969 21.261719 18.527344 21.261719 C 18.757812 21.261719 18.949219 21.074219 18.949219 20.84375 L 18.949219 18.738281 L 21.050781 18.738281 C 21.285156 18.738281 21.472656 18.546875 21.472656 18.316406 C 21.472656 18.082031 21.285156 17.894531 21.050781 17.894531 Z M 21.050781 17.894531 "/>
<path style=" stroke:none;fill-rule:nonzero;fill:rgb(0%,0%,0%);fill-opacity:1;" d="M 11.367188 18.316406 C 11.136719 18.316406 10.949219 18.128906 10.949219 17.894531 C 10.949219 17.660156 11.136719 17.472656 11.367188 17.472656 L 11.847656 17.472656 C 12.164062 14.945312 13.886719 12.855469 16.203125 12 L 11.367188 12 C 11.136719 12 10.949219 11.8125 10.949219 11.578125 C 10.949219 11.347656 11.136719 11.15625 11.367188 11.15625 L 18.949219 11.15625 C 19.179688 11.15625 19.367188 11.347656 19.367188 11.578125 C 19.367188 11.597656 19.359375 11.617188 19.355469 11.636719 C 20.625 11.792969 21.785156 12.300781 22.738281 13.066406 L 22.738281 5.335938 C 22.738281 2.511719 20.4375 0.210938 17.609375 0.210938 L 5.125 0.210938 C 2.300781 0.210938 0 2.511719 0 5.335938 L 0 17.820312 C 0 20.648438 2.300781 22.949219 5.125 22.949219 L 13.648438 22.949219 C 12.5 21.738281 11.789062 20.109375 11.789062 18.316406 Z M 11.367188 5.261719 L 18.949219 5.261719 C 19.179688 5.261719 19.367188 5.453125 19.367188 5.683594 C 19.367188 5.917969 19.179688 6.105469 18.949219 6.105469 L 11.367188 6.105469 C 11.136719 6.105469 10.949219 5.917969 10.949219 5.683594 C 10.949219 5.453125 11.136719 5.261719 11.367188 5.261719 Z M 8.710938 16.0625 L 5.824219 19.429688 C 5.742188 19.527344 5.621094 19.578125 5.503906 19.578125 C 5.414062 19.578125 5.328125 19.550781 5.25 19.496094 L 3.328125 18.050781 C 3.140625 17.910156 3.101562 17.648438 3.242188 17.460938 C 3.382812 17.273438 3.644531 17.238281 3.832031 17.378906 L 5.441406 18.585938 L 8.070312 15.515625 C 8.222656 15.339844 8.488281 15.320312 8.664062 15.46875 C 8.839844 15.621094 8.863281 15.886719 8.710938 16.0625 Z M 8.710938 9.746094 L 5.824219 13.117188 C 5.742188 13.210938 5.621094 13.261719 5.503906 13.261719 C 5.414062 13.261719 5.328125 13.234375 5.25 13.179688 L 3.328125 11.734375 C 3.140625 11.597656 3.101562 11.332031 3.242188 11.144531 C 3.382812 10.960938 3.644531 10.921875 3.832031 11.0625 L 5.441406 12.269531 L 8.070312 9.199219 C 8.222656 9.023438 8.488281 9.003906 8.664062 9.15625 C 8.839844 9.304688 8.863281 9.570312 8.710938 9.746094 Z M 8.710938 3.851562 L 5.824219 7.222656 C 5.742188 7.316406 5.621094 7.367188 5.503906 7.367188 C 5.414062 7.367188 5.328125 7.339844 5.25 7.285156 L 3.328125 5.839844 C 3.140625 5.699219 3.101562 5.4375 3.242188 5.25 C 3.382812 5.066406 3.644531 5.027344 3.832031 5.167969 L 5.441406 6.375 L 8.070312 3.304688 C 8.222656 3.128906 8.488281 3.109375 8.664062 3.261719 C 8.839844 3.410156 8.863281 3.675781 8.710938 3.851562 Z M 8.710938 3.851562 "/>
</g>
</svg>
