<?xml version="1.0" encoding="UTF-8"?>
<svg xmlns="http://www.w3.org/2000/svg" xmlns:xlink="http://www.w3.org/1999/xlink" width="24px" height="24px" viewBox="0 0 24 24" version="1.1">
<g id="surface1">
<path style=" stroke:none;fill-rule:nonzero;fill:rgb(0%,0%,0%);fill-opacity:1;" d="M 19.945312 3.484375 C 19.527344 3.484375 19.179688 3.773438 19.089844 4.164062 C 18.6875 4.339844 18.378906 4.664062 18.199219 5.046875 C 17.953125 5.574219 17.875 6.203125 17.863281 6.890625 C 17.835938 8.054688 18.003906 9.40625 18.074219 10.59375 C 17.992188 11.28125 17.847656 11.929688 17.648438 12.535156 C 17.78125 13.375 17.808594 14.246094 17.695312 15.121094 C 17.457031 16.917969 15.980469 17.988281 14.402344 18.304688 C 12.945312 18.601562 11.339844 18.324219 10.292969 17.398438 C 8.664062 18.457031 6.699219 18.734375 5.023438 18.175781 C 3.054688 18.9375 1.53125 19.996094 0.917969 21.054688 L 15.996094 21.054688 C 20.828125 21.054688 22.460938 15.996094 21.21875 10.480469 C 21.21875 10.484375 21.214844 10.484375 21.214844 10.484375 C 20.949219 8.570312 21.261719 7.183594 21.914062 6.316406 C 22.003906 6.351562 22.105469 6.367188 22.207031 6.367188 C 22.691406 6.367188 23.082031 5.976562 23.082031 5.492188 C 23.082031 5.007812 22.691406 4.613281 22.207031 4.613281 C 21.722656 4.613281 21.328125 5.007812 21.328125 5.492188 C 21.328125 5.539062 21.335938 5.585938 21.339844 5.628906 C 20.34375 6.808594 19.988281 8.710938 20.4375 11.15625 C 19.957031 11.382812 19.449219 11.292969 18.964844 10.839844 C 18.90625 9.527344 18.714844 8.0625 18.738281 6.910156 C 18.75 6.28125 18.835938 5.75 18.992188 5.417969 C 19.089844 5.207031 19.1875 5.074219 19.339844 4.996094 C 19.496094 5.144531 19.710938 5.238281 19.945312 5.238281 C 20.429688 5.238281 20.820312 4.84375 20.820312 4.359375 C 20.820312 3.875 20.429688 3.484375 19.945312 3.484375 Z M 9.0625 4.980469 C 8.960938 4.980469 8.855469 4.980469 8.753906 4.984375 C 7.105469 5.054688 5.464844 5.710938 4.109375 6.921875 C 1.449219 9.289062 1.324219 13.699219 3.679688 16.347656 C 5.492188 18.144531 8.6875 17.976562 10.78125 15.886719 C 12.550781 14.125 12.683594 11.433594 11.191406 9.933594 C 10.15625 8.890625 8.332031 8.769531 7.167969 9.988281 C 6.910156 10.261719 6.746094 10.738281 6.75 11.25 C 6.753906 11.761719 6.921875 12.28125 7.199219 12.613281 C 7.367188 12.816406 7.695312 13.007812 8.066406 13.101562 C 8.285156 13.160156 8.515625 13.175781 8.726562 13.160156 C 9.34375 13.152344 9.953125 12.738281 9.953125 11.914062 C 9.953125 11.175781 9.46875 10.769531 8.925781 10.683594 C 9.289062 10.648438 9.617188 10.710938 9.890625 10.859375 C 10.289062 11.078125 10.53125 11.46875 10.613281 11.871094 C 10.777344 12.667969 10.359375 13.609375 9.421875 13.902344 L 9.425781 13.90625 C 9.417969 13.90625 9.410156 13.90625 9.402344 13.910156 C 9.398438 13.910156 9.398438 13.914062 9.394531 13.914062 C 8.898438 14.089844 8.355469 14.082031 7.851562 13.953125 C 7.335938 13.824219 6.855469 13.570312 6.523438 13.171875 C 6.082031 12.644531 5.878906 11.945312 5.875 11.257812 C 5.871094 10.570312 6.0625 9.875 6.535156 9.382812 C 8.035156 7.8125 10.4375 7.929688 11.8125 9.316406 C 13.6875 11.199219 13.46875 14.441406 11.398438 16.503906 C 11.277344 16.628906 11.148438 16.742188 11.015625 16.855469 C 11.816406 17.449219 13.082031 17.679688 14.230469 17.449219 C 15.554688 17.179688 16.644531 16.386719 16.824219 15.007812 C 17.269531 11.609375 15.222656 8.101562 13.4375 6.605469 C 12.140625 5.515625 10.605469 4.988281 9.0625 4.980469 Z M 9.0625 4.980469 "/>
</g>
</svg>
