<?xml version="1.0" encoding="UTF-8"?>
<svg xmlns="http://www.w3.org/2000/svg" xmlns:xlink="http://www.w3.org/1999/xlink" width="30px" height="30px" viewBox="0 0 30 30" version="1.1">
<g id="surface1">
<path style=" stroke:none;fill-rule:nonzero;fill:rgb(0%,0%,0%);fill-opacity:1;" d="M 27.359375 9.832031 L 27.359375 4.984375 C 27.359375 4.179688 28.015625 3.519531 28.820312 3.519531 L 28.820312 1.164062 C 26.714844 1.164062 25 2.878906 25 4.984375 L 25 9.042969 C 24.828125 9.027344 24.65625 9.019531 24.480469 9.019531 C 24.316406 9.019531 24.160156 9.027344 24 9.042969 L 24 4.984375 C 24 2.878906 22.289062 1.164062 20.183594 1.164062 L 20.183594 3.519531 C 20.988281 3.519531 21.644531 4.179688 21.644531 4.984375 L 21.644531 9.804688 C 20.035156 10.773438 18.957031 12.53125 18.957031 14.539062 L 18.957031 17.574219 C 18.265625 17.792969 17.238281 18.199219 15.9375 18.914062 C 15.621094 20.828125 14.65625 22.550781 13.164062 23.824219 C 11.660156 25.109375 9.789062 25.796875 7.832031 25.796875 C 7.613281 25.796875 7.394531 25.789062 7.175781 25.773438 C 5.324219 25.625 3.582031 25 2.097656 23.96875 C 1.480469 24.792969 0.9375 25.988281 0.9375 27.65625 L 0.9375 28.835938 L 23.929688 28.835938 C 27.277344 28.835938 30 26.113281 30 22.765625 L 30 14.539062 C 30 12.550781 28.941406 10.804688 27.359375 9.832031 Z M 27.359375 9.832031 "/>
<path style=" stroke:none;fill-rule:nonzero;fill:rgb(0%,0%,0%);fill-opacity:1;" d="M 11.566406 4.976562 C 8.710938 4.75 5.933594 5.652344 3.753906 7.515625 C 1.574219 9.378906 0.25 11.976562 0.0234375 14.835938 C -0.140625 16.960938 0.527344 19.027344 1.914062 20.648438 C 3.300781 22.269531 5.234375 23.253906 7.359375 23.421875 C 8.921875 23.546875 10.441406 23.050781 11.632812 22.035156 C 12.824219 21.015625 13.550781 19.59375 13.671875 18.03125 C 13.855469 15.699219 12.105469 13.648438 9.773438 13.46875 C 8.976562 13.402344 8.203125 13.65625 7.597656 14.175781 C 6.988281 14.695312 6.621094 15.417969 6.554688 16.214844 L 4.207031 16.03125 C 4.320312 14.605469 4.980469 13.3125 6.066406 12.382812 C 7.152344 11.457031 8.535156 11.007812 9.960938 11.117188 C 11.1875 11.214844 12.308594 11.644531 13.246094 12.308594 C 14.574219 13.25 15.53125 14.664062 15.890625 16.285156 C 16.136719 16.164062 16.375 16.054688 16.601562 15.953125 L 16.601562 14.539062 C 16.601562 12.835938 17.144531 11.257812 18.070312 9.96875 C 18.417969 9.480469 18.824219 9.03125 19.273438 8.632812 C 17.398438 6.460938 14.8125 5.230469 11.566406 4.976562 Z M 11.566406 4.976562 "/>
</g>
</svg>
